name analog
datacolumns 19
datarows 46
range 0.1705 0.193
endheader
time	ground_force_vx	ground_force_vy	ground_force_vz	ground_force_px	ground_force_py	ground_force_pz	l_ground_force_vx	l_ground_force_vy	l_ground_force_vz	l_ground_force_px	l_ground_force_py	l_ground_force_pz	ground_torque_x	ground_torque_y	ground_torque_z	l_ground_torque_x	l_ground_torque_y	l_ground_torque_z
0.1705	-0.0	-0.0	-0.0	5.105007171630859	12.214862823486328	-334.0765380859375	4.621243953704834	-16.1669921875	-319.09197998046875	-0.0	-0.0	-0.0	-0.0	-0.0	-0.0	98775.6875	-10475.3017578125	-1078.41943359375
0.171	-0.0	-0.0	-0.0	4.743995189666748	11.7493896484375	-329.5482482910156	4.355027675628662	-16.571823120117188	-319.8390197753906	-0.0	-0.0	-0.0	-0.0	-0.0	-0.0	99176.25	-10431.7421875	-1191.7861328125
0.1715	-0.0	-0.0	-0.0	4.584715843200684	11.935707092285156	-326.0928039550781	4.867011547088623	-16.407785415649414	-319.8070373535156	-0.0	-0.0	-0.0	-0.0	-0.0	-0.0	99047.1640625	-10456.4736328125	-1242.5557861328125
0.17200000000000001	-0.0	-0.0	-0.0	4.758782386779785	11.497821807861328	-326.9991455078125	4.620899200439453	-16.074546813964844	-319.7760009765625	-0.0	-0.0	-0.0	-0.0	-0.0	-0.0	99094.5859375	-10036.1357421875	-1045.674072265625
0.17250000000000001	-0.0	-0.0	-0.0	5.092569351196289	11.334688186645508	-325.6169128417969	4.9638776779174805	-16.166776657104492	-319.80743408203125	-0.0	-0.0	-0.0	-0.0	-0.0	-0.0	98826.7890625	-10287.2294921875	-1129.1224365234375
0.17300000000000001	-0.0	-0.0	-0.0	4.564585208892822	11.87659740447998	-325.2640380859375	4.798089981079102	-16.32416343688965	-318.4111022949219	-0.0	-0.0	-0.0	-0.0	-0.0	-0.0	98251.8203125	-9955.34765625	-1046.7073974609375
0.17350000000000002	-0.0	-0.0	-0.0	4.657217979431152	12.578339576721191	-327.29656982421875	4.339236259460449	-15.7250394821167	-317.04461669921875	-0.0	-0.0	-0.0	-0.0	-0.0	-0.0	98013.8359375	-9915.3515625	-1071.352294921875
0.17400000000000002	-0.0	-0.0	-0.0	4.018054485321045	13.10574722290039	-326.69146728515625	4.354275703430176	-15.901610374450684	-316.0408630371094	-0.0	-0.0	-0.0	-0.0	-0.0	-0.0	98330.703125	-9730.5380859375	-1187.5037841796875
0.17450000000000002	-0.0	-0.0	-0.0	4.000321865081787	13.451621055603027	-327.3978271484375	4.162045955657959	-15.79492473602295	-314.9927062988281	-0.0	-0.0	-0.0	-0.0	-0.0	-0.0	98131.671875	-9571.8857421875	-1192.5361328125
0.17500000000000002	-0.0	-0.0	-0.0	3.208082437515259	13.465676307678224	-326.3659362792969	3.4742753505706787	-15.6220703125	-314.2937316894531	-0.0	-0.0	-0.0	-0.0	-0.0	-0.0	98053.0234375	-9445.205078125	-1565.1739501953125
0.17550000000000002	-0.0	-0.0	-0.0	2.7621028423309326	13.722661972045898	-325.67254638671875	3.289431571960449	-14.9547700881958	-316.01031494140625	-0.0	-0.0	-0.0	-0.0	-0.0	-0.0	97571.4140625	-9094.2158203125	-1517.9027099609375
0.176	-0.0	-0.0	-0.0	2.0484771728515625	13.47549819946289	-327.0712585449219	3.342944860458374	-15.092530250549316	-314.3330993652344	-0.0	-0.0	-0.0	-0.0	-0.0	-0.0	97775.8515625	-9154.607421875	-1718.451171875
0.1765	-0.0	-0.0	-0.0	1.599144697189331	13.884427070617676	-325.6845092773437	2.3778610229492188	-14.990530967712402	-316.6669006347656	-0.0	-0.0	-0.0	-0.0	-0.0	-0.0	97774.421875	-8809.3212890625	-1902.9329833984373
0.177	-0.0	-0.0	-0.0	0.9051027297973632	13.544574737548828	-326.0751647949219	1.9448500871658323	-15.014686584472656	-316.6404724121094	-0.0	-0.0	-0.0	-0.0	-0.0	-0.0	97839.109375	-8828.7255859375	-2167.9052734375
0.1775	-0.0	-0.0	-0.0	0.707301914691925	13.81521224975586	-327.01934814453125	0.9624762535095216	-14.854647636413574	-315.64617919921875	-0.0	-0.0	-0.0	-0.0	-0.0	-0.0	98015.15625	-8820.7529296875	-2381.788818359375
0.178	-0.0	-0.0	-0.0	0.71368408203125	13.888765335083008	-327.04461669921875	0.453343391418457	-15.112754821777344	-316.6676940917969	-0.0	-0.0	-0.0	-0.0	-0.0	-0.0	97912.9140625	-8848.7412109375	-2465.631591796875
0.1785	-0.0	-0.0	-0.0	0.6921566724777222	13.809066772460938	-330.174560546875	0.8838873505592346	-15.194536209106444	-316.6805419921875	-0.0	-0.0	-0.0	-0.0	-0.0	-0.0	98113.0234375	-9057.6767578125	-2498.240966796875
0.179	-0.0	-0.0	-0.0	0.6335257291793823	13.642980575561523	-328.0802917480469	0.5354275703430176	-14.920066833496094	-317.4037475585937	-0.0	-0.0	-0.0	-0.0	-0.0	-0.0	98230.3515625	-9080.984375	-2436.917724609375
0.1795	-0.0	-0.0	-0.0	0.6215290427207947	13.28042984008789	-326.0084228515625	1.3090288639068604	-14.74972152709961	-317.0418395996094	-0.0	-0.0	-0.0	-0.0	-0.0	-0.0	98534.6171875	-8978.1005859375	-2488.394287109375
0.18	-0.0	-0.0	-0.0	0.6070579886436462	13.283329963684082	-326.01959228515625	1.0614806413650513	-14.996474266052246	-316.716552734375	-0.0	-0.0	-0.0	-0.0	-0.0	-0.0	98427.53125	-9114.240234375	-2319.90771484375
0.1805	-0.0	-0.0	-0.0	-0.0949306041002273	12.826205253601074	-325.3466796875	1.3306617736816406	-14.225777626037598	-317.810791015625	-0.0	-0.0	-0.0	-0.0	-0.0	-0.0	98772.875	-8986.6220703125	-2316.462158203125
0.181	-0.0	-0.0	-0.0	-0.0864233151078224	11.968536376953123	-326.3161926269531	0.813066840171814	-14.311034202575684	-317.7626037597656	-0.0	-0.0	-0.0	-0.0	-0.0	-0.0	98801.84375	-9577.546875	-2379.123291015625
0.1815	-0.0	-0.0	-0.0	0.0864812731742858	12.208138465881348	-323.50201416015625	0.895736813545227	-14.481892585754396	-321.5346984863281	-0.0	-0.0	-0.0	-0.0	-0.0	-0.0	99211.9609375	-9354.64453125	-2436.454345703125
0.182	-0.0	-0.0	-0.0	-0.1863901764154434	11.678736686706545	-321.46734619140625	1.1644556522369385	-14.13426113128662	-320.5653076171875	-0.0	-0.0	-0.0	-0.0	-0.0	-0.0	99651.6953125	-9281.7646484375	-2527.955810546875
0.1825	-0.0	-0.0	-0.0	-0.8712009191513062	11.927809715270996	-322.4429626464844	1.2502332925796509	-14.040399551391602	-321.2520751953125	-0.0	-0.0	-0.0	-0.0	-0.0	-0.0	99964.5703125	-9618.58203125	-2458.330078125
0.183	-0.0	-0.0	-0.0	-0.7213950753211975	11.418963432312012	-321.081298828125	1.2446693181991575	-14.043148040771484	-323.6421813964844	-0.0	-0.0	-0.0	-0.0	-0.0	-0.0	100036.46875	-9683.640625	-2437.860107421875
0.1835	-0.0	-0.0	-0.0	-0.1859134286642074	11.054664611816406	-322.02099609375	0.8195641040802002	-14.401702880859377	-322.6473388671875	-0.0	-0.0	-0.0	-0.0	-0.0	-0.0	100059.4140625	-9421.6494140625	-2469.6142578125
0.184	-0.0	-0.0	-0.0	-0.1014055162668228	10.869035720825195	-320.697021484375	0.9732308983802797	-14.567925453186035	-323.65338134765625	-0.0	-0.0	-0.0	-0.0	-0.0	-0.0	99937.1171875	-9696.779296875	-2642.242431640625
0.1845	-0.0	-0.0	-0.0	-0.3544460833072662	10.779991149902344	-318.9879150390625	0.7122312188148499	-14.918764114379885	-324.3218078613281	-0.0	-0.0	-0.0	-0.0	-0.0	-0.0	100349.1875	-9657.8486328125	-2821.366455078125
0.185	-0.0	-0.0	-0.0	-0.4390832483768463	9.813628196716309	-318.6050720214844	0.5124849677085876	-15.35566520690918	-325.7682189941406	-0.0	-0.0	-0.0	-0.0	-0.0	-0.0	100645.6953125	-9658.607421875	-2908.958251953125
0.1855	-0.0	-0.0	-0.0	-0.4369946718215942	9.719738960266112	-319.6547546386719	0.2564757466316223	-15.465909004211426	-326.4472961425781	-0.0	-0.0	-0.0	-0.0	-0.0	-0.0	101172.96875	-9856.6826171875	-3026.2490234375
0.186	-0.0	-0.0	-0.0	-0.1871874779462814	9.086921691894531	-322.0827331542969	0.1797632724046707	-15.458626747131348	-328.8731689453125	-0.0	-0.0	-0.0	-0.0	-0.0	-0.0	101636.3046875	-9973.392578125	-3059.19482421875
0.1865	-0.0	-0.0	-0.0	-0.4374573230743408	8.747660636901855	-321.39373779296875	0.6140780448913574	-15.63064956665039	-330.9866943359375	-0.0	-0.0	-0.0	-0.0	-0.0	-0.0	102246.5390625	-10349.958984375	-2910.609130859375
0.187	-0.0	-0.0	-0.0	-0.1868491023778915	9.16990566253662	-322.0667419433594	1.1396946907043457	-15.716764450073242	-332.41900634765625	-0.0	-0.0	-0.0	-0.0	-0.0	-0.0	103102.0	-10325.0263671875	-2939.16650390625
0.1875	-0.0	-0.0	-0.0	0.0688688680529594	8.562615394592285	-322.46942138671875	1.4215576648712158	-15.893552780151367	-334.15533447265625	-0.0	-0.0	-0.0	-0.0	-0.0	-0.0	103835.9375	-10770.03125	-2823.3017578125
0.188	-0.0	-0.0	-0.0	-0.3607936203479767	8.287153244018555	-323.16748046875	1.8629264831542969	-16.596006393432617	-336.6072692871094	-0.0	-0.0	-0.0	-0.0	-0.0	-0.0	104343.4765625	-10920.990234375	-2645.1240234375
0.1885	-0.0	-0.0	-0.0	-0.0154664423316717	8.285264015197754	-323.5434265136719	2.388936758041382	-16.171171188354492	-338.32794189453125	-0.0	-0.0	-0.0	-0.0	-0.0	-0.0	104520.78125	-10836.056640625	-2612.146728515625
0.189	-0.0	-0.0	-0.0	-0.1895837187767028	8.199996948242188	-323.8586730957031	2.3044679164886475	-16.95375633239746	-340.06573486328125	-0.0	-0.0	-0.0	-0.0	-0.0	-0.0	104832.234375	-11180.033203125	-2643.439697265625
0.1895	-0.0	-0.0	-0.0	-0.3622481524944305	8.019935607910156	-321.8111572265625	2.8289737701416016	-16.69668960571289	-338.71551513671875	-0.0	-0.0	-0.0	-0.0	-0.0	-0.0	105133.90625	-11327.4013671875	-2552.682861328125
0.19	-0.0	-0.0	-0.0	-0.363758772611618	8.727869033813477	-323.8865661621094	2.75003433227539	-16.608224868774414	-339.7319641113281	-0.0	-0.0	-0.0	-0.0	-0.0	-0.0	104872.9296875	-11045.8203125	-2466.265625
0.1905	-0.0	-0.0	-0.0	-0.9779423475265504	8.284071922302246	-324.2525634765625	3.014327049255371	-16.775625228881836	-340.444580078125	-0.0	-0.0	-0.0	-0.0	-0.0	-0.0	105344.8125	-10972.8798828125	-2462.38720703125
0.191	-0.0	-0.0	-0.0	-0.71368408203125	8.19023323059082	-324.5852966308594	2.753598213195801	-16.774023056030273	-341.4352111816406	-0.0	-0.0	-0.0	-0.0	-0.0	-0.0	105408.796875	-11104.5966796875	-2317.885009765625
0.1915	-0.0	-0.0	-0.0	-0.0938781648874282	8.107757568359375	-324.2438049316406	4.07214879989624	-16.33951187133789	-339.0531616210937	-0.0	-0.0	-0.0	-0.0	-0.0	-0.0	105258.78125	-11380.2041015625	-2170.73046875
0.192	-0.0	-0.0	-0.0	0.0907244682312011	7.668239593505859	-325.6438903808594	4.172742366790772	-16.074546813964844	-340.4490966796875	-0.0	-0.0	-0.0	-0.0	-0.0	-0.0	105308.53125	-11604.8154296875	-2136.92626953125
0.1925	-0.0	-0.0	-0.0	0.799951434135437	7.855237483978271	-328.0750427246094	4.358208179473877	-16.159631729125977	-342.16217041015625	-0.0	-0.0	-0.0	-0.0	-0.0	-0.0	105706.8671875	-11594.2080078125	-2047.2802734375
0.193	-0.0	-0.0	-0.0	0.4474512636661529	7.934003353118896	-326.6803894042969	4.791935443878174	-15.54461669921875	-342.86688232421875	-0.0	-0.0	-0.0	-0.0	-0.0	-0.0	105681.5	-11566.1142578125	-1899.0389404296875
